<?xml version="1.0" encoding="utf-8"?>
<!-- Generator: Adobe Illustrator 22.0.1, SVG Export Plug-In . SVG Version: 6.00 Build 0)  -->
<svg version="1.1" id="Ebene_1" xmlns="http://www.w3.org/2000/svg" xmlns:xlink="http://www.w3.org/1999/xlink" x="0px" y="0px"
	 viewBox="0 0 141.7 31.3" style="enable-background:new 0 0 141.7 31.3;" xml:space="preserve">
<style type="text/css">
	.st0{fill:#353C49;}
	.st1{fill:#B39A68;}
</style>
<g>
	<g>
		<polygon class="st0" points="77.2,20.2 77.2,0 95.6,0 95.6,4.6 82,4.6 82,7.8 91.2,7.8 91.2,12.4 82,12.4 82,15.6 96.3,15.6 
			96.3,20.2 		"/>
		<polygon class="st0" points="0,20.2 0,0 18.4,0 18.4,4.6 4.9,4.6 4.9,7.8 14.1,7.8 14.1,12.4 4.9,12.4 4.9,15.6 19.1,15.6 
			19.1,20.2 		"/>
		<polygon class="st0" points="111.8,4.6 111.8,20.2 107,20.2 107,4.6 98.9,4.6 98.9,0 119.9,0 119.9,4.6 		"/>
		<path class="st0" d="M136.4,20.2l-2-4.2H124l-2,4.2h-5L126.4,0h5.5l9.4,20.2H136.4z M129.2,4.8l-3.1,6.7h6.1L129.2,4.8z"/>
		<polygon class="st0" points="21.8,0 44.1,20.2 51.7,20.2 29.3,0 		"/>
		<polygon class="st0" points="74,20.2 51.7,0 44.1,0 66.4,20.2 		"/>
		<polygon class="st1" points="21.7,20.2 44.1,0 51.7,0 29.3,20.2 		"/>
		<polygon class="st1" points="74,0 51.7,20.2 44.1,20.2 66.4,0 		"/>
	</g>
	<g>
		<g>
			<path class="st0" d="M2,25.9c-0.6,0-1.1,0.2-1.5,0.6C0,27,0,27.6,0,28.6v0.1c0,1,0,1.6,0.5,2.1c0.4,0.4,0.9,0.6,1.5,0.6
				c1,0,1.8-0.6,2-1.6H3.1C3,30.3,2.6,30.6,2,30.6c-0.3,0-0.6-0.1-0.8-0.3c-0.3-0.3-0.3-0.6-0.3-1.7c0-1.1,0.1-1.4,0.3-1.7
				c0.2-0.2,0.5-0.3,0.8-0.3c0.6,0,1,0.3,1.1,0.9H4C3.8,26.5,3,25.9,2,25.9"/>
			<path class="st0" d="M7.7,30.6c-0.3,0-0.6-0.1-0.8-0.3c-0.3-0.3-0.3-0.6-0.3-1.7s0.1-1.4,0.3-1.7c0.2-0.2,0.5-0.3,0.8-0.3
				c0.3,0,0.6,0.1,0.8,0.3c0.3,0.3,0.3,0.6,0.3,1.7c0,1.1-0.1,1.4-0.3,1.7C8.3,30.5,8,30.6,7.7,30.6 M7.7,25.9
				c-0.6,0-1.1,0.2-1.5,0.6c-0.5,0.5-0.5,1.1-0.5,2.1v0.1c0,1,0,1.6,0.5,2.1c0.4,0.4,0.9,0.6,1.5,0.6c0.6,0,1.1-0.2,1.5-0.6
				c0.5-0.5,0.5-1.1,0.5-2.1v-0.2c0-1,0-1.6-0.5-2.1C8.8,26.1,8.3,25.9,7.7,25.9"/>
		</g>
		<polygon class="st0" points="15,25.9 15,29.8 12.4,25.9 11.7,25.9 11.7,31.3 12.5,31.3 12.5,27.5 15.1,31.3 15.8,31.3 15.8,25.9 
					"/>
		<g>
			<path class="st0" d="M17.8,30.6c0.5,0.5,1.1,0.7,2,0.7c1.2,0,2-0.6,2-1.6c0-0.5-0.2-0.8-0.4-1.1c-0.2-0.2-0.5-0.3-1-0.4l-0.6-0.1
				c-0.3,0-0.5-0.1-0.6-0.3c-0.1-0.1-0.2-0.3-0.2-0.5c0-0.5,0.4-0.9,1-0.9c0.5,0,0.9,0.1,1.2,0.4l0.5-0.5c-0.5-0.4-1-0.6-1.7-0.6
				c-1.1,0-1.8,0.6-1.8,1.6c0,0.4,0.1,0.8,0.4,1c0.2,0.2,0.6,0.4,1,0.4L20,29c0.3,0,0.5,0.1,0.6,0.2c0.1,0.1,0.2,0.3,0.2,0.6
				c0,0.5-0.4,0.8-1.2,0.8c-0.6,0-1.1-0.2-1.4-0.5L17.8,30.6z"/>
			<path class="st0" d="M23.5,25.9v3.6c0,0.5,0.2,1,0.6,1.3c0.4,0.3,0.9,0.5,1.4,0.5c1.2,0,2-0.8,2-1.9v-3.6h-0.8v3.5
				c0,0.7-0.5,1.2-1.2,1.2c-0.7,0-1.2-0.5-1.2-1.2v-3.5H23.5z"/>
		</g>
		<polygon class="st0" points="29.7,25.9 29.7,31.3 33.2,31.3 33.2,30.6 30.5,30.6 30.5,25.9 		"/>
		<polygon class="st0" points="34.1,25.9 34.1,26.6 35.6,26.6 35.6,31.3 36.4,31.3 36.4,26.6 38,26.6 38,25.9 		"/>
		<rect x="39.9" y="25.9" class="st0" width="0.8" height="5.4"/>
		<polygon class="st0" points="46.3,25.9 46.3,29.8 43.7,25.9 42.9,25.9 42.9,31.3 43.7,31.3 43.7,27.5 46.3,31.3 47.1,31.3 
			47.1,25.9 		"/>
		<g>
			<path class="st0" d="M51,25.9c-0.6,0-1.1,0.2-1.5,0.6c-0.5,0.5-0.5,1.1-0.5,2.1v0.1c0,1,0,1.6,0.5,2.1c0.4,0.4,0.9,0.6,1.5,0.6
				c0.6,0,1.1-0.2,1.5-0.6c0.4-0.4,0.5-0.8,0.5-1.5v-0.8h-2v0.7h1.2v0.3c0,0.4-0.1,0.6-0.3,0.9c-0.2,0.2-0.5,0.4-0.9,0.4
				c-0.3,0-0.6-0.1-0.8-0.3c-0.3-0.3-0.3-0.6-0.3-1.7c0-1.1,0.1-1.4,0.3-1.7c0.2-0.2,0.5-0.3,0.8-0.3c0.6,0,1,0.3,1.2,0.9h0.8
				C52.9,26.7,52.3,25.9,51,25.9"/>
		</g>
		<path class="st0" d="M58.7,29.5l0.9-2.4l0.9,2.5L58.7,29.5L58.7,29.5z M59.2,25.9l-2,5.4H58l0.4-1.1h2.2l0,0l0.4,1.1h0.9l-2-5.4
			H59.2z"/>
		<polygon class="st0" points="67,25.9 67,29.8 64.4,25.9 63.6,25.9 63.6,31.3 64.4,31.3 64.4,27.5 67,31.3 67.8,31.3 67.8,25.9 		
			"/>
		<g>
			<path class="st0" d="M71.8,30.6h-1v-4h1c0.4,0,0.7,0.1,1,0.4c0.3,0.3,0.3,0.8,0.3,1.6c0,0.7,0,1.3-0.3,1.6
				C72.6,30.5,72.2,30.6,71.8,30.6 M70,31.3h1.9c0.6,0,1.1-0.2,1.4-0.5c0.6-0.5,0.6-1.3,0.6-2.1c0,0,0-0.1,0-0.1c0,0,0-0.1,0-0.1
				c0-0.7,0-1.5-0.6-2c-0.3-0.3-0.8-0.5-1.4-0.5H70V31.3z"/>
		</g>
		<polygon class="st0" points="78.2,25.9 78.2,26.6 79.7,26.6 79.7,31.3 80.5,31.3 80.5,26.6 82.1,26.6 82.1,25.9 		"/>
		<polygon class="st0" points="83.9,25.9 83.9,31.3 87.5,31.3 87.5,30.6 84.8,30.6 84.8,28.9 87.1,28.9 87.1,28.2 84.8,28.2 
			84.8,26.6 87.5,26.6 87.5,25.9 		"/>
		<g>
			<path class="st0" d="M91.2,25.9c-0.6,0-1.1,0.2-1.5,0.6c-0.5,0.5-0.5,1.1-0.5,2.1v0.1c0,1,0,1.6,0.5,2.1c0.4,0.4,0.9,0.6,1.5,0.6
				c1,0,1.8-0.6,2-1.6h-0.8c-0.1,0.6-0.6,0.9-1.1,0.9c-0.3,0-0.6-0.1-0.8-0.3C90.1,30,90,29.7,90,28.6c0-1.1,0.1-1.4,0.3-1.7
				c0.2-0.2,0.5-0.3,0.8-0.3c0.6,0,1,0.3,1.1,0.9h0.8C93,26.5,92.3,25.9,91.2,25.9"/>
		</g>
		<polygon class="st0" points="98.3,25.9 98.3,28.2 96,28.2 96,25.9 95.2,25.9 95.2,31.3 96,31.3 96,28.9 98.3,28.9 98.3,31.3 
			99.1,31.3 99.1,25.9 		"/>
		<polygon class="st0" points="104.7,25.9 104.7,29.8 104.7,29.7 102.1,25.9 101.4,25.9 101.4,31.3 102.2,31.3 102.2,27.5 
			102.2,27.5 104.8,31.3 105.6,31.3 105.6,25.9 		"/>
		<g>
			<path class="st0" d="M109.4,30.6c-0.3,0-0.6-0.1-0.8-0.3c-0.3-0.3-0.3-0.6-0.3-1.7s0.1-1.4,0.3-1.7c0.2-0.2,0.5-0.3,0.8-0.3
				c0.3,0,0.6,0.1,0.8,0.3c0.3,0.3,0.3,0.6,0.3,1.7s-0.1,1.4-0.3,1.7C110,30.5,109.7,30.6,109.4,30.6 M109.4,25.9
				c-0.6,0-1.1,0.2-1.5,0.6c-0.5,0.5-0.5,1.1-0.5,2.1v0.1c0,1,0,1.6,0.5,2.1c0.4,0.4,0.9,0.6,1.5,0.6c0.6,0,1.1-0.2,1.5-0.6
				c0.5-0.5,0.5-1.1,0.5-2.1v-0.2c0-1,0-1.6-0.5-2.1C110.4,26.1,110,25.9,109.4,25.9"/>
		</g>
		<polygon class="st0" points="113.3,25.9 113.3,31.3 116.8,31.3 116.8,30.6 114.2,30.6 114.2,25.9 		"/>
		<g>
			<path class="st0" d="M120,30.6c-0.3,0-0.6-0.1-0.8-0.3c-0.3-0.3-0.3-0.6-0.3-1.7s0.1-1.4,0.3-1.7c0.2-0.2,0.5-0.3,0.8-0.3
				c0.3,0,0.6,0.1,0.8,0.3c0.3,0.3,0.3,0.6,0.3,1.7c0,1.1-0.1,1.4-0.3,1.7C120.6,30.5,120.3,30.6,120,30.6 M120,25.9
				c-0.6,0-1.1,0.2-1.5,0.6c-0.5,0.5-0.5,1.1-0.5,2.1v0.1c0,1,0,1.6,0.5,2.1c0.4,0.4,0.9,0.6,1.5,0.6c0.6,0,1.1-0.2,1.5-0.6
				c0.5-0.5,0.5-1.1,0.5-2.1v-0.2c0-1,0-1.6-0.5-2.1C121.1,26.1,120.6,25.9,120,25.9"/>
			<path class="st0" d="M125.8,25.9c-0.6,0-1.1,0.2-1.5,0.6c-0.5,0.5-0.5,1.1-0.5,2.1v0.1c0,1,0,1.6,0.5,2.1
				c0.4,0.4,0.9,0.6,1.5,0.6c0.6,0,1.1-0.2,1.5-0.6c0.4-0.4,0.5-0.8,0.5-1.5v-0.8h-2v0.7h1.2v0.3c0,0.4-0.1,0.6-0.3,0.9
				c-0.2,0.2-0.5,0.4-0.9,0.4c-0.3,0-0.6-0.1-0.8-0.3c-0.3-0.3-0.3-0.6-0.3-1.7c0-1.1,0.1-1.4,0.3-1.7c0.2-0.2,0.5-0.3,0.8-0.3
				c0.6,0,1,0.3,1.2,0.9h0.8C127.7,26.7,127.1,25.9,125.8,25.9"/>
		</g>
		<rect x="129.9" y="25.9" class="st0" width="0.8" height="5.4"/>
		<polygon class="st0" points="132.8,25.9 132.8,31.3 136.3,31.3 136.3,30.6 133.6,30.6 133.6,28.9 135.9,28.9 135.9,28.2 
			133.6,28.2 133.6,26.6 136.3,26.6 136.3,25.9 		"/>
		<g>
			<path class="st0" d="M137.8,30.6c0.5,0.5,1.1,0.7,2,0.7c1.2,0,2-0.6,2-1.6c0-0.5-0.2-0.8-0.4-1.1c-0.2-0.2-0.5-0.3-1-0.4
				l-0.6-0.1c-0.3,0-0.5-0.1-0.6-0.3c-0.1-0.1-0.2-0.3-0.2-0.5c0-0.5,0.4-0.9,1-0.9c0.5,0,0.9,0.1,1.2,0.4l0.5-0.5
				c-0.5-0.4-1-0.6-1.7-0.6c-1.1,0-1.8,0.6-1.8,1.6c0,0.4,0.1,0.8,0.4,1c0.2,0.2,0.6,0.4,1,0.4l0.7,0.1c0.3,0,0.5,0.1,0.6,0.2
				c0.1,0.1,0.2,0.3,0.2,0.6c0,0.5-0.4,0.8-1.2,0.8c-0.6,0-1.1-0.2-1.4-0.5L137.8,30.6z"/>
		</g>
	</g>
</g>
</svg>
