<svg width="182" height="182" xmlns="http://www.w3.org/2000/svg">

 <g>
  <title>background</title>
  <rect fill="none" id="canvas_background" height="184" width="184" y="-1" x="-1"/>
 </g>
 <g>
  <title>Layer 1</title>
  <path fill="#59baea" id="svg_1" d="m134.323888,45.788784c-3.1,-14.5 -10,-28.1 -19.9,-39.3c0,0 0,0 0,0c20,5.6 38.1,18.4 49.8,37.2c-10.1,-1.1 -20.2,-0.3 -29.9,2.1m-108.5,101.6c14.4,16.2 34.5,26.6 56.2,28.8c-5.4,-8.6 -9.3,-18.1 -11.4,-28.1c-14.4,3.6 -29.7,3.6 -44.8,-0.7m90.1,25.5c45.9,-13.9 71.8,-62.3 57.9,-108.2c-2.3,-7.7 -5.6,-14.8 -9.6,-21.1c-10.2,-1 -20.3,-0.3 -30,2.2c3.4,16 2.4,33 -3.9,49.4c-10.5,27.3 -33.4,46.3 -59.8,52.9c2.1,10 6,19.5 11.4,28.1c11.2,1.1 22.7,0.2 34,-3.3" class="st0"/>
  <path fill="#586e7c" id="svg_2" d="m70.623888,148.088784c-3.5,-16 -2.4,-33 3.8,-49.4c10.6,-27.3 33.4,-46.3 59.9,-52.9c-3.1,-14.6 -10,-28.1 -19.9,-39.3c-15.8,-4.5 -32.8,-4.5 -48.8,0.4c-45.9,13.9 -71.8,62.3 -57.9,108.2c3.8,12.4 10,23.3 18.1,32.4c15.1,4.2 30.4,4.2 44.8,0.6" class="st1"/>
 </g>
</svg>