<svg width="380" height="380" xmlns="http://www.w3.org/2000/svg" xmlns:xlink="http://www.w3.org/1999/xlink">
 <defs>
  <linearGradient xlink:href="#linearGradient3649-2" id="linearGradient2851" x1="0.324367" y1="0.935622" x2="1" y2="0.5"/>
  <linearGradient id="linearGradient3649-2">
   <stop stop-color="#909ca9" offset="0" id="stop3651-1"/>
   <stop stop-color="#ededee" offset="1" id="stop3653-6"/>
  </linearGradient>
  <linearGradient xlink:href="#linearGradient3672-8" id="linearGradient2848" x1="0" y1="0.5" x2="1" y2="0.5"/>
  <linearGradient id="linearGradient3672-8">
   <stop stop-color="#939fab" offset="0" id="stop3674-5"/>
   <stop stop-color="#dcdee1" offset="1" id="stop3676-7"/>
  </linearGradient>
  <radialGradient xlink:href="#linearGradient3629-6" id="radialGradient2845" gradientUnits="userSpaceOnUse" gradientTransform="matrix(-0.6435342,-0.09731428,0.19435637,-1.2852688,-377.15369,-44.777181)" cx="-1259.0977" cy="-245.42754" fx="-1259.0977" fy="-245.42754" r="414.15625"/>
  <linearGradient id="linearGradient3629-6">
   <stop stop-color="#ee352c" offset="0" id="stop3631-1"/>
   <stop stop-color="#a91d22" offset="1" id="stop3633-8"/>
  </linearGradient>
 </defs>
 <metadata id="metadata3619">image/svg+xml</metadata>
 <g>
  <title>background</title>
  <rect fill="none" id="canvas_background" height="382" width="382" y="-1" x="-1"/>
 </g>
 <g>
  <title>Layer 1</title>
  <path fill="url(#linearGradient2851)" id="path3639" d="m235.323205,177.306541l-75.343674,24.570396l-65.501179,28.931582l-18.35035,4.849732c-4.652196,4.422085 -9.589418,8.913567 -14.847134,13.488697c-5.779526,5.029221 -11.214778,9.586896 -15.347561,12.880991c-4.602058,3.668137 -11.444816,10.457676 -14.942384,14.811348c-5.20349,6.477153 -9.272597,13.384043 -11.022144,18.695905c-3.147602,9.556587 -1.614025,19.23587 4.456516,28.168969c7.754539,11.411164 23.191668,23.005074 41.145267,30.897691c9.158014,4.025942 24.612074,9.215906 36.200263,12.142209c19.311735,4.876683 56.635285,10.175149 77.190572,10.962544c4.168814,0.159615 9.718496,0.144631 9.973549,-0.023854c0.451125,-0.297955 3.65112,-6.35711 7.36397,-13.941496c12.633044,-25.806189 21.772908,-49.998659 26.691412,-70.660747c2.97811,-12.510775 5.299884,-29.1935 6.803943,-48.973969c0.421266,-5.540909 0.573981,-24.020832 0.250213,-30.301901c-0.526814,-10.220933 -1.427112,-18.551632 -2.87169,-26.727158c-0.211928,-1.19827 -0.289905,-2.252001 -0.178755,-2.347416c0.209491,-0.179819 0.921117,-0.408126 10.1761,-3.098113l-1.846932,-4.325435l0,0.000023zm-17.218364,10.104602c0.684715,0 2.505522,17.460812 2.978952,28.53836c0.10059,2.353814 0.080266,3.860726 -0.05956,3.860726c-0.449708,0 -9.648905,-5.40188 -16.169769,-9.496901c-5.694649,-3.576155 -16.501204,-10.75743 -18.219292,-12.106463c-0.5421,-0.425678 -0.484828,-0.446463 4.170573,-2.049517c7.920906,-2.727538 26.70052,-8.746204 27.299095,-8.746204zm-38.380833,12.595009c0.486809,-0.001139 1.812381,0.730481 4.945079,2.692976c11.751578,7.361795 27.66515,16.21874 34.48435,19.196366c2.114412,0.923241 2.355818,0.565492 -2.514221,3.872641c-10.380861,7.04934 -23.286463,13.98055 -39.131513,21.019484c-2.761605,1.226775 -5.100993,2.228255 -5.195292,2.228255c-0.094333,0 0.213915,-1.400805 0.679182,-3.121938c3.838454,-14.199065 6.004462,-28.531051 6.065127,-40.025202c0.030059,-5.684566 0.031596,-5.714682 0.57196,-5.85066c0.025334,-0.006376 0.062879,-0.011841 0.095329,-0.011898l0,-0.000023zm-7.900166,3.014705c0.340129,0.34166 0.093838,13.080059 -0.321706,16.551058c-0.99696,8.327039 -2.626208,16.028422 -5.231061,24.78488c-0.622439,2.092357 -1.205916,3.896011 -1.298803,4.003711c-0.226269,0.262322 -8.015734,-7.327313 -10.605108,-10.331007c-4.424214,-5.132151 -7.924185,-10.230281 -10.473975,-15.252232c-1.295905,-2.552455 -3.362394,-7.593364 -3.169606,-7.733361c0.875095,-0.635482 30.886465,-12.237778 31.10026,-12.023049zm-37.213049,14.668357c0.070047,0.007002 0.124455,0.026017 0.154884,0.059577c0.112334,0.123766 0.509006,1.049005 0.881773,2.061439c1.814368,4.928068 5.894337,12.249113 9.437318,16.932364c3.868121,5.113057 8.911307,10.56105 13.131222,14.179811c1.35497,1.161949 2.619114,2.24645 2.800232,2.406993c0.36133,0.320294 0.482813,0.265989 -8.805799,3.789227c-10.765144,4.083277 -22.489231,8.172172 -35.949975,12.523516c-5.129669,1.658197 -9.47118,3.059378 -9.63991,3.121944c-0.512741,0.190118 -0.355489,-0.125633 1.143919,-2.466576c6.688409,-10.442004 16.820508,-30.868367 22.485109,-45.315818c0.982551,-2.505801 1.917588,-5.015456 2.085287,-5.576599c0.246365,-0.824348 0.489138,-1.104734 1.263074,-1.453727c0.428097,-0.193056 0.802652,-0.283142 1.012866,-0.262152zm-11.40345,4.706747c0.151531,0.133296 -2.735981,6.231397 -5.576599,11.772818c-5.509677,10.748162 -11.584146,21.325267 -19.649188,34.234119c-1.391537,2.227344 -2.673904,4.263603 -2.84786,4.516088c-0.286432,0.415795 -0.403839,0.27877 -1.286905,-1.477558c-1.930704,-3.84002 -3.548282,-8.684982 -4.385018,-13.190799c-0.828082,-4.459391 -0.687226,-12.179721 0.309814,-16.968111c0.740723,-3.557499 0.708045,-3.478867 2.383162,-4.337356c7.242447,-3.711808 30.81672,-14.756701 31.052592,-14.549202zm98.221994,3.991796l0,2.418908c-0.012183,12.704696 -1.36832,30.098325 -3.336428,42.78967c-0.345349,2.227128 -0.644409,4.064547 -0.667283,4.087119c-0.022715,0.022487 -1.628104,-0.447954 -3.56281,-1.04859c-8.548913,-2.653967 -17.81728,-6.618806 -26.179052,-11.200859c-5.537362,-3.034374 -13.546345,-7.949746 -13.321835,-8.174245c0.061012,-0.06104 2.419882,-1.311066 5.24296,-2.776384c11.181298,-5.803744 21.862248,-12.06089 31.147882,-18.266936c3.483957,-2.328469 8.696903,-6.097429 9.854394,-7.113739l0.822173,-0.714945zm-141.226165,16.837035c0.232138,-0.011158 0.173193,0.429384 -0.190653,2.526153c-0.252957,1.458242 -0.5389,4.21285 -0.643413,6.112812c-0.458025,8.327751 0.892482,14.471789 5.02843,22.878348c1.149908,2.337282 2.049443,4.285629 2.001856,4.32544c-0.414098,0.34663 -38.075027,11.367237 -49.915302,14.60878c-3.509769,0.960895 -6.577333,1.807348 -6.82774,1.882701c-0.410853,0.123675 -0.447459,0.034215 -0.297915,-0.929435c1.296862,-8.354998 7.670197,-19.320883 16.574872,-28.526445c5.92012,-6.120144 10.660325,-9.745435 18.719758,-14.346634c5.784177,-3.302219 14.767518,-8.258057 15.430987,-8.507889c0.044576,-0.016794 0.085987,-0.022203 0.119121,-0.023854l0,0.000023zm88.832371,15.907605c0.035752,-0.042811 1.43104,0.704111 3.098113,1.668211c12.164532,7.035062 29.139434,13.633573 43.611855,16.94428l1.310741,0.297898l-1.79927,1.000928c-7.560071,4.19507 -32.457439,14.554286 -57.887035,24.093766c-3.712201,1.39259 -7.334457,2.75799 -8.043152,3.03853c-0.708694,0.280534 -1.286905,0.47289 -1.286905,0.417053c0,-0.055848 1.048897,-2.074561 2.3355,-4.480341c7.138766,-13.348063 14.264728,-29.568641 17.921377,-40.823561c0.372801,-1.14742 0.702933,-2.113934 0.738776,-2.156762zm-9.056012,2.967037c0.039054,0.039054 -0.405672,1.23478 -0.989035,2.645308c-4.962847,12.000732 -11.46514,25.092661 -19.75637,39.798802c-2.109994,3.742556 -3.888593,6.798147 -3.956049,6.79201c-0.06753,-0.006148 -1.783631,-1.021571 -3.813058,-2.264002c-12.076683,-7.393397 -22.761863,-16.494076 -29.777626,-25.344924l-1.000928,-1.251164l5.207191,-1.429896c18.573756,-5.088224 34.325116,-10.529608 49.986835,-17.277924c2.217712,-0.95556 4.060032,-1.707237 4.099041,-1.668211zm56.254514,19.637255c0.0267,0.005693 0.035752,0.024252 0.035752,0.04765c0,1.265966 -2.873023,12.981399 -5.266785,21.460367c-2.007958,7.11247 -3.693596,12.675644 -6.815841,22.532794c-1.378955,4.353455 -2.562799,7.906685 -2.633415,7.888268c-0.070582,-0.018388 -0.401289,-0.081922 -0.738742,-0.142991c-16.919265,-3.061934 -32.073429,-7.331822 -46.269101,-13.035892c-3.971494,-1.595836 -9.70649,-4.136222 -10.009284,-4.432679c-0.102571,-0.100459 3.326932,-1.716078 7.614223,-3.586658c25.926852,-11.31206 52.789851,-24.19423 61.974098,-29.718026c1.104643,-0.66438 1.922432,-1.051311 2.109083,-1.012843l0.000011,0.000011zm-129.858444,4.444595c0.139023,0.131696 -7.113335,10.513337 -17.242195,24.689556c-3.520483,4.927163 -7.65605,10.734636 -9.187105,12.904816c-1.531061,2.170192 -3.847074,5.605172 -5.159529,7.638037l-2.39506,3.693898l-2.550018,-2.144841c-2.992069,-2.512228 -8.229342,-7.846139 -10.605034,-10.807643c-4.888872,-6.094196 -8.201543,-12.507672 -9.508851,-18.398007c-0.603533,-2.719328 -0.621301,-4.105035 -0.04765,-4.277773c0.829073,-0.249684 16.038374,-3.830251 30.301918,-7.13757c7.922967,-1.837128 17.082887,-3.987589 20.364099,-4.778239c3.281291,-0.790634 5.997369,-1.412589 6.029438,-1.382234l-0.000011,0zm7.292471,2.788299l1.834999,2.049517c8.203985,9.139073 16.547454,15.958899 26.727175,21.841679c1.797323,1.038638 3.167169,1.941635 3.050451,2.013771c-0.423708,0.261878 -35.201777,12.627276 -51.285644,18.231184c-9.070728,3.160406 -16.52183,5.73738 -16.562973,5.731505c-0.04116,-0.006035 -0.554949,-0.342042 -1.131981,-0.750697l-1.04859,-0.750697l1.64434,-2.371241c5.33653,-7.730093 12.041489,-16.231003 26.715282,-33.888559l10.05694,-12.106463zm45.446859,32.482494c0.04025,-0.050212 2.582964,0.851264 5.66003,2.001856c7.41708,2.773372 13.23825,4.582218 21.114807,6.553695c9.674341,2.421442 23.655113,4.842872 31.934371,5.540846c1.271004,0.107137 1.919797,0.252183 1.715873,0.381306c-0.384352,0.243399 -8.767365,3.043397 -14.930486,4.980808c-9.783203,3.075364 -39.681321,11.907771 -64.05939,18.922304c-4.522248,1.301217 -8.388843,2.400628 -8.591314,2.442745c-0.546028,0.113564 -2.454655,-0.387392 -2.454655,-0.643458c0,-0.121711 1.366943,-1.851663 3.026614,-3.836889c8.193994,-9.801216 16.334074,-20.748109 23.128601,-31.10026c1.858369,-2.831441 3.415356,-5.192759 3.455548,-5.242954zm-10.068838,0.285977c0.07332,0.073337 -3.965853,6.540966 -11.069772,17.730723c-2.999538,4.72468 -6.400827,10.102917 -7.566556,11.951556c-1.165689,1.848662 -2.873825,4.657975 -3.789227,6.255803l-1.668211,2.907454l-0.846004,-0.2264c-2.041399,-0.552677 -16.441109,-5.639626 -20.244978,-7.149486c-4.714466,-1.871269 -9.62763,-4.131098 -13.250382,-6.088975c-4.527126,-2.44665 -10.268794,-6.07723 -9.818625,-6.220057c0.129607,-0.041104 7.919915,-2.173238 17.301755,-4.730572c24.957959,-6.8031 38.763176,-10.711397 47.818123,-13.536359c1.691928,-0.527839 3.10146,-0.926059 3.133876,-0.893689zm70.887124,16.622556c0.053742,-0.011671 0.07866,-0.011898 0.083431,0c0.236066,0.590297 -9.003437,26.181278 -12.380547,34.293697c-0.756356,1.817072 -1.036236,2.257329 -1.429896,2.240171c-0.955896,-0.04173 -14.352964,-1.914844 -22.461278,-3.145775c-14.194266,-2.154832 -37.969752,-6.306664 -43.969336,-7.673778l-1.394167,-0.309814l8.507923,-1.918442c18.235875,-4.108685 26.99375,-6.312295 35.878482,-9.032187c11.205243,-3.430289 22.300673,-7.707122 33.507253,-12.916738c1.771738,-0.823613 3.2819,-1.455361 3.658134,-1.537135z"/>
  <path fill="url(#linearGradient2848)" id="path3667" d="m157.675063,1.718221c-1.260028,-0.147107 -21.480788,7.138123 -34.472434,12.416276c-17.603536,7.15186 -31.271511,14.004404 -39.703473,19.923232c-3.138488,2.203064 -7.085047,6.165313 -7.661868,7.685693c-0.215856,0.568954 -0.317129,1.233931 -0.321723,1.918447l7.649947,7.220979l18.147776,5.791083l43.230554,7.721445l49.414858,8.495974l0.500461,-4.242032c-0.149498,-0.023569 -0.290964,-0.047935 -0.440884,-0.071493l-6.506033,-1.024759l-1.322651,-2.323585c-6.716049,-11.850602 -14.137825,-26.515253 -18.445674,-36.438544c-3.336257,-7.685209 -6.539964,-16.53834 -8.31723,-22.949846c-1.055541,-3.807872 -1.165427,-4.054424 -1.751625,-4.122872zm-0.953266,2.931291c0.050269,-0.009052 0.075575,-0.009393 0.083408,0c0.039908,0.047764 0.26953,1.637213 0.500467,3.527081c0.972582,7.959151 2.753572,15.678234 5.540852,23.986521c2.100339,6.260676 2.130455,5.892959 -0.369391,5.195292c-5.81065,-1.621659 -31.84498,-6.090546 -50.677932,-8.698537c-3.034545,-0.420224 -5.560237,-0.793913 -5.600435,-0.834111c-0.239118,-0.239118 13.581903,-7.480386 19.708748,-10.331001c7.858066,-3.656079 29.25634,-12.565058 30.814283,-12.845245zm-54.872297,25.487915l2.204424,0.750697c12.091126,4.115772 42.398116,9.905045 59.150069,11.296183c1.889874,0.156945 3.478907,0.325316 3.527081,0.369391c0.048163,0.044064 -1.557288,0.901898 -3.562827,1.906532c-8.081289,4.048151 -16.975756,8.982293 -23.128584,12.833324c-1.806898,1.130933 -3.46402,2.043079 -3.681982,2.025687c-0.217963,-0.017364 -1.409549,-0.208814 -2.657229,-0.417053l-2.275917,-0.369385l-5.71959,-5.552768c-10.040794,-9.718132 -17.880142,-17.236325 -20.912244,-20.078139l-2.9432,-2.764468zm-2.240176,1.787371l8.007428,9.997362c4.408051,5.498815 8.825838,10.955946 9.806709,12.130294c0.980866,1.174354 1.739693,2.169572 1.692042,2.204424c-0.227214,0.166207 -11.605438,-2.049085 -17.635394,-3.431752c-6.190311,-1.419444 -8.750645,-2.098887 -12.583093,-3.324512l-3.121944,-1.000928l0.011898,-0.774528c0.03968,-3.840345 4.88019,-9.504792 13.09547,-15.299894l0.726866,-0.500467l0.000017,0zm68.194177,13.619767c0.240177,0.018559 0.493812,0.506723 1.203496,2.061439c1.942164,4.254733 7.98769,15.786105 9.449234,18.0167c0.481327,0.734603 1.244401,0.783774 -6.780095,-0.512377c-19.285023,-3.114998 -25.523889,-4.157718 -25.523662,-4.277778c0.000137,-0.073172 0.578347,-0.451985 1.286905,-0.846021c5.972132,-3.321131 11.997852,-7.501331 17.361332,-12.023055c1.282413,-1.081142 2.514716,-2.111167 2.740637,-2.299748c0.092904,-0.07755 0.182091,-0.125337 0.262152,-0.11916z"/>
  <path fill="url(#radialGradient2845)" d="m76.179181,40.974348c0,0 -1.251335,1.983934 -0.071499,4.93314c0.730049,1.824934 2.92229,4.017095 5.338283,6.339211c0,0 25.306735,24.685821 28.40729,28.264299c14.021529,16.182851 20.111443,32.114646 20.673946,54.109667c0.360942,14.114535 -2.361318,26.52238 -8.972626,40.942716c-11.849805,25.846478 -36.817829,54.34928 -75.379404,86.044072l5.66003,-1.870797c3.638112,-2.7255 8.578733,-5.636426 20.23304,-12.011139c26.839703,-14.680847 56.979644,-28.184716 94.003798,-42.098528c53.268314,-20.018408 140.891132,-43.50601 190.748263,-51.142653l5.195292,-0.798376l-0.798359,-1.251141c-4.558808,-7.085963 -7.67055,-11.455382 -11.415343,-16.086343c-10.935479,-13.523316 -24.174196,-24.557433 -40.394593,-33.638346c-22.289753,-12.478769 -51.200482,-22.177248 -87.747996,-29.443942c-6.909303,-1.373774 -22.040434,-3.967606 -34.353297,-5.886412c-26.082009,-4.064569 -42.904384,-6.809323 -61.485569,-10.045047c-6.661948,-1.155892 -16.608808,-2.826277 -23.211998,-4.253925c-3.440673,-0.743888 -9.979538,-2.290081 -15.061579,-4.039475c-4.195623,-1.651935 -10.103805,-3.248807 -11.367681,-8.066983zm14.66838,14.239372c0.035467,-0.032052 0.986018,0.261992 2.144841,0.655385c2.135658,0.724976 4.953852,1.57369 8.233805,2.490384c2.29775,0.6422 4.824171,1.316002 7.506961,2.001856c3.424089,0.875403 6.255359,1.627529 6.291544,1.668217c0.379058,0.426224 6.12976,18.779581 8.090853,25.821577c0.748505,2.687783 1.316691,4.927157 1.263079,4.980808c-0.053628,0.053628 -0.691575,-0.935993 -1.406065,-2.192509c-6.652953,-11.69984 -17.188891,-23.597762 -29.372489,-33.173614c-1.518627,-1.193602 -2.75253,-2.206958 -2.75253,-2.252103zm28.037877,7.745271c0.29307,-0.02021 1.556378,0.191268 3.062383,0.524298c9.701981,2.14553 27.025625,5.490042 38.166315,7.36397c1.85612,0.312216 3.38409,0.648451 3.38409,0.750714c0,0.102229 -0.693443,0.540807 -1.537124,0.965164c-1.869237,0.940257 -9.432821,5.467657 -11.963472,7.161418c-6.317475,4.228261 -11.997442,8.754134 -16.134005,12.86907c-1.662342,1.653648 -3.053417,3.002789 -3.098107,3.002789c-0.04469,0 -0.335324,-0.963678 -0.643452,-2.144847c-2.068054,-7.927122 -6.343942,-19.632752 -10.176106,-27.871094c-0.616684,-1.325685 -1.120082,-2.494847 -1.120082,-2.597646c0,-0.01298 0.017534,-0.02095 0.05956,-0.023626l0,-0.000211zm49.319552,9.377764c0.324678,0.108213 0.938316,2.023244 2.025687,6.327273c2.082121,8.241587 3.051516,17.497213 2.728699,26.059892c-0.089836,2.382894 -0.24053,4.595727 -0.333644,4.921214l-0.178715,0.59579l-2.943223,-0.953266c-6.067228,-1.939358 -15.980265,-4.858141 -24.475072,-7.209046c-4.825924,-1.335563 -8.781933,-2.527907 -8.781933,-2.645308c0,-0.352784 7.041808,-7.392834 10.068838,-10.068878c5.782088,-5.111594 21.337877,-17.211498 21.889364,-17.027671zm3.92028,0.560021c0.175589,-0.163389 23.56817,3.887227 34.198367,5.922176c7.923576,1.5168 19.387269,3.917616 20.078162,4.206263c0.333525,0.139371 -0.85283,0.785874 -4.659102,2.502322c-15.055521,6.78938 -26.209134,12.84894 -37.29648,20.268809c-2.920462,1.954421 -5.347398,3.550912 -5.397844,3.550912c-0.050497,0 -0.093804,-1.631303 -0.095324,-3.62241c-0.007629,-10.812191 -2.166241,-21.72532 -6.124727,-30.94537c-0.426036,-0.992235 -0.745722,-1.842969 -0.703052,-1.882701zm60.484647,11.963472c0.181117,0.181163 -0.586147,4.794049 -1.251141,7.518894c-2.069807,8.480739 -7.554549,21.068142 -14.322803,32.89953c-1.192691,2.084865 -2.25943,3.823163 -2.383162,3.86072c-0.123772,0.037745 -1.664972,-0.772826 -3.419859,-1.799264c-6.618362,-3.871093 -14.112247,-7.533195 -22.342123,-10.926815c-2.294846,-0.946286 -4.249347,-1.788897 -4.349288,-1.882701c-0.375317,-0.352135 17.912951,-12.460352 27.608948,-18.278852c7.755188,-4.653836 20.241813,-11.609122 20.459428,-11.391512zm4.325457,0.679222c0.526655,0 10.900894,2.828372 16.265058,4.432679c13.361663,3.996162 28.775007,9.626793 38.774044,14.167879l4.158618,1.882701l-2.931291,0.679216c-24.465656,5.620526 -45.435343,12.106389 -65.632255,20.304538c-1.678242,0.681203 -3.138647,1.239243 -3.241104,1.239243c-0.102491,0 0.43313,-1.297465 1.179648,-2.883623c6.071076,-12.899311 9.992273,-26.434793 11.010206,-37.92804c0.092659,-1.046147 0.281519,-1.894594 0.417076,-1.894594zm-103.119411,23.700527c0.165678,-0.163657 8.061762,1.6864 12.368609,2.895561c6.47339,1.817413 20.248218,6.426718 20.256877,6.780072c0,0.068749 -1.518092,1.392072 -3.372197,2.943223c-7.447242,6.230537 -14.630817,12.74511 -23.235823,21.055219c-2.551015,2.463576 -4.718736,4.468443 -4.825884,4.468443c-0.107148,0 -0.15477,-0.359644 -0.095324,-0.798376c1.295905,-9.566089 1.017512,-21.849553 -0.786444,-34.353257c-0.228671,-1.584974 -0.367239,-2.934188 -0.309814,-2.990885zm166.27318,0.154924c0.118426,0.118432 -3.663423,6.029398 -6.017488,9.401555c-3.434849,4.920331 -8.41355,11.379807 -19.75641,25.642816c-5.958121,7.492011 -12.678576,15.970348 -14.942424,18.838913c-2.263819,2.868565 -4.163611,5.219123 -4.218195,5.219123c-0.054539,0 -0.784713,-1.027275 -1.620549,-2.275934c-6.394166,-9.552289 -13.981615,-17.943152 -23.033243,-25.476c-1.689184,-1.405724 -3.594873,-2.947345 -4.230128,-3.419819c-0.63522,-0.472474 -1.153147,-0.909606 -1.155817,-0.977097c-0.006092,-0.155727 9.661037,-4.301814 17.039592,-7.30441c12.845381,-5.227207 30.402007,-11.48646 43.540362,-15.514384c6.928295,-2.124062 14.289083,-4.240005 14.394301,-4.134764zm4.361181,1.143919c0.20747,-0.042299 1.586351,0.624996 3.241104,1.572882c13.83724,7.926434 27.396536,18.105397 38.059093,28.574112c3.032968,2.977808 10.453122,10.696316 10.342922,10.759952c-0.028237,0.016396 -2.590968,0.219329 -5.695759,0.452805c-23.978437,1.803346 -54.634613,6.904265 -84.149439,14.001091c-2.004565,0.48197 -3.737426,0.881773 -3.848804,0.881773c-0.111406,0 2.082662,-2.202386 4.873563,-4.885484c17.332884,-16.663449 25.240315,-27.185161 34.543927,-45.983124c1.385644,-2.799663 2.560522,-5.214967 2.609562,-5.362114c0.002847,-0.009166 0.01002,-0.009166 0.023854,-0.011841l-0.000023,-0.000051zm-126.736523,12.98823c0.791744,0.177685 8.183815,3.617292 13.762741,6.410704c5.10191,2.554556 12.82919,6.66866 13.214653,7.030325c0.048391,0.04543 -2.673682,1.466844 -6.053234,3.157673c-10.699174,5.352886 -19.863672,10.407971 -29.432043,16.25316c-2.728551,1.666839 -5.015547,3.038553 -5.08807,3.038553c-0.238696,0 -0.144631,-0.206366 1.382234,-3.002783c5.095425,-9.332237 9.205676,-20.474412 11.570267,-31.362412c0.211051,-0.971831 0.465005,-1.565259 0.643452,-1.52522zm-7.447395,1.334567c0.154315,0.154315 -1.763888,7.199932 -2.978952,10.962544c-2.330467,7.216595 -6.270884,16.288434 -10.056945,23.116669c-0.889168,1.603624 -2.253441,3.950977 -3.026614,5.219129l-1.406065,2.299731l-3.193437,-3.086175c-3.710829,-3.597469 -6.73352,-5.831463 -10.593136,-7.816775c-1.517022,-0.780301 -2.750663,-1.502493 -2.75257,-1.608651c-0.00723,-0.469309 9.708277,-9.304666 17.206426,-15.645437c5.367227,-4.538763 16.664098,-13.578225 16.801294,-13.441035zm45.25624,18.612496l2.776401,1.799264c6.369179,4.135265 13.910839,9.698212 19.661086,14.489625c3.222374,2.685119 9.484969,8.292944 10.771874,9.651808l0.69112,0.726883l-4.611423,1.286905c-26.081628,7.236384 -46.231891,13.678394 -69.743211,22.318292c-2.609277,0.958868 -4.862297,1.751642 -5.016572,1.751642c-0.324342,0 -0.646697,0.298143 5.219123,-5.099968c15.038283,-13.839193 28.322829,-29.087001 38.249746,-43.921668l2.001856,-3.002783zm-11.891979,2.978952c0.136239,0.136239 -7.707452,11.121777 -12.368609,17.325586c-5.576485,7.422079 -15.508474,19.829389 -22.342123,27.906823c-2.855141,3.374748 -5.301142,6.175053 -5.433607,6.220051c-0.145314,0.049358 -0.235645,-0.777369 -0.238315,-2.085287c-0.013322,-6.892065 -1.756942,-14.258016 -4.837822,-20.495192c-1.30128,-2.634406 -1.51931,-3.272023 -1.251175,-3.515143c1.072233,-0.972104 17.662698,-10.431807 28.121308,-16.038681c7.183957,-3.851338 18.213684,-9.454819 18.350345,-9.318158zm-71.923821,17.623461c0.142496,0 1.473328,0.668621 2.955122,1.489496c3.631024,2.01146 6.893135,4.22464 9.770963,6.625188c0.111036,0.09262 -1.379183,1.309939 -3.312597,2.704868c-5.39666,3.893631 -13.614484,10.0958 -18.374176,13.881936c-5.021684,3.994523 -5.188239,4.116996 -4.623333,3.252997c3.760705,-5.751579 5.651524,-9.007969 7.626116,-13.166951c1.755343,-3.697177 3.504736,-8.086009 4.754426,-11.903911c0.519151,-1.586118 1.060989,-2.883623 1.203479,-2.883623zm19.160619,15.037748c0.259254,-0.032052 0.628201,0.450744 2.168678,2.75257c3.246592,4.851087 5.732781,11.320401 6.374975,16.58681l0.131059,1.131981l-7.781006,3.014716c-13.967308,5.420229 -26.824144,10.762856 -35.509109,14.739838c-2.429833,1.112653 -6.719675,3.16221 -9.520749,4.563772c-2.801035,1.401528 -5.08803,2.503045 -5.08803,2.442722c0,-0.060283 1.759037,-1.382843 3.908382,-2.943183c17.045211,-12.374291 31.741543,-25.921859 42.813484,-39.465158c1.184146,-1.448467 2.259658,-2.704606 2.395094,-2.788299c0.035866,-0.022146 0.0702,-0.031255 0.107222,-0.035866l0,0.000097zm-8.841528,2.192509c0.225466,0.225466 -6.289147,7.592829 -10.676567,12.070734c-10.981188,11.207725 -21.867662,19.994651 -35.354185,28.550276c-1.687391,1.070439 -3.22928,2.038308 -3.431752,2.156745c-0.370211,0.216545 0.11969,-0.340203 6.041296,-6.79201c3.731614,-4.065714 6.587785,-7.440843 9.830563,-11.653664c2.135539,-2.77434 2.543426,-3.163543 5.671922,-5.421675c8.427168,-6.082741 27.694588,-19.134534 27.918722,-18.910406z" id="path2851"/>
  <path fill="#231f1f" fill-rule="nonzero" d="m207.972081,368.755298l-3.158895,0l0,9.810105l-1.28763,0l0,-9.810105l-3.168143,0l0,-1.157939l7.614669,0" id="path168"/>
  <path fill="#231f1f" fill-rule="nonzero" d="m220.894756,378.565402l-1.28763,0l0,-7.3738c0,-0.574321 0.039111,-1.28763 0.111081,-2.121334l-0.039111,0c-0.120539,0.491098 -0.222115,0.842952 -0.324236,1.065291l-3.742513,8.429842l-0.629894,0l-3.751778,-8.374254c-0.102105,-0.231604 -0.213186,-0.611412 -0.324236,-1.12088l-0.027891,0c0.039111,0.435285 0.055781,1.148674 0.055781,2.139847l0,7.355286l-1.24137,0l0,-10.977309l1.704498,0l3.362704,7.660928c0.259494,0.574369 0.426357,1.009767 0.500026,1.315425l0.055781,0c0.222115,-0.6021 0.398466,-1.056026 0.527933,-1.352468l3.436807,-7.623885l1.611866,0" id="path170"/>
 </g>
</svg>