<svg width="36.1" height="36.1" xmlns="http://www.w3.org/2000/svg">

 <g>
  <title>background</title>
  <rect fill="none" id="canvas_background" height="38.1" width="38.1" y="-1" x="-1"/>
 </g>
 <g>
  <title>Layer 1</title>
  <path id="svg_1" d="m0.036332,4.036332c0,-2.209 1.791,-4 4,-4l28,0c2.209,0 4,1.791 4,4l0,28c0,2.209 -1.791,4 -4,4l-28,0c-2.209,0 -4,-1.791 -4,-4l0,-28z" fill="#37474f"/>
  <path id="svg_2" d="m18.036332,28.100026a2,2 0 1 0 0,4a2,2 0 1 0 0,-4zm7,0a2,2 0 1 0 0,4a2,2 0 1 0 0,-4zm-14,0a2,2 0 1 0 0,4a2,2 0 1 0 0,-4z" fill="#00e676"/>
  <path id="svg_3" d="m18.036332,10.100026c-0.552,0 -1,0.448 -1,1l0,2l2,0l0,-2c0,-0.552 -0.448,-1 -1,-1z" fill="#fff"/>
  <path id="svg_4" d="m18.036332,4.100026c-7.179,0 -13,4.253 -13,9.5c0,0.169 0.023,0.333 0.035,0.5l-0.035,0c0,4 3,6 3,7s-2,4 -2,4s5,-2 8,-2s4,0 4,0c7.179,0 13,-4.254 13,-9.5c0,-5.247 -5.82,-9.5 -13,-9.5zm4,14c0,0.552 -0.448,1 -1,1l-6,0c-0.552,0 -1,-0.448 -1,-1l0,-4c0,-0.552 0.448,-1 1,-1l0,-2c0,-1.654 1.346,-3 3,-3s3,1.346 3,3l0,2c0.552,0 1,0.448 1,1l0,4z" fill="#fff"/>
  <line stroke-linecap="null" stroke-linejoin="null" id="svg_13" y2="3.22244" x2="7.940791" y1="-0.21705" x1="-1.103794" fill-opacity="null" stroke-opacity="null" stroke-width="null" stroke="null" fill="none"/>
 </g>
</svg>