<svg width="512" height="512" xmlns="http://www.w3.org/2000/svg" preserveAspectRatio="xMidYMid">
 <g>
  <title>background</title>
  <rect x="-1" y="-1" width="514" height="514" id="canvas_background" fill="none"/>
 </g>

 <g>
  <title>Layer 1</title>
  <circle class="cls-1" cx="256" cy="256" r="256" id="svg_2" fill="#ffe812"/>
  <path class="cls-3" d="m256,378.836487c-10.870331,0 -21.517273,-0.731567 -31.863861,-2.134827l-81.259979,36.568909l13.995667,-56.964661c-49.983917,-24.971375 -83.040405,-68.279053 -83.040405,-117.52298c0,-77.34903 81.560303,-140.053467 182.168579,-140.053467c100.608276,0 182.168579,62.704437 182.168579,140.053467c0,77.34903 -81.560303,140.053558 -182.168579,140.053558zm-57.892578,-177.857773l-53.604584,0c-11.809631,-0.301743 -8.815216,17.052658 -2.726807,17.244812c4.878693,0.155121 19.08075,0 19.08075,0c0,0 0,51.529526 0,60.810165c0,9.280579 18.171295,10.078979 18.171295,0c0,-7.053345 0,-60.810165 0,-60.810165c0,0 10.252686,0.109573 19.079346,0c8.82663,-0.109604 8.477936,-17.244812 0,-17.244812zm68.143829,78.054977c-1.37619,-3.965088 -22.531952,-64.765228 -24.531555,-69.885864c-5.506317,-14.10527 -20.5466,-12.210983 -26.348999,0.908005c-4.050385,9.156799 -20.863953,56.880692 -23.622131,64.439224c-3.678955,10.080505 12.76889,19.264343 17.261902,7.261108c4.493042,-12.003113 4.542816,-12.706207 4.542816,-12.706207l31.799805,0.908051c0,0 -0.243317,1.418823 3.634857,10.890259c3.878174,9.474182 19.746765,5.348328 17.263306,-1.814575zm48.153717,-10.891754c-9.15686,0 -22.714142,0 -22.714142,0c0,0 0,-46.099991 0,-58.99411c0,-12.894135 -19.079346,-13.006561 -19.079346,0c0,10.396408 0,62.83252 0,68.977844c0,6.146729 6.122559,7.261108 8.17627,7.261108c2.053619,0 25.818146,0 33.617218,0c7.799103,0 9.156769,-17.244843 0,-17.244843zm73.594666,-54.456985c5.661438,-5.635834 -6.576599,-17.054123 -12.72052,-10.890259c-6.143921,6.16243 -29.982361,29.951096 -29.982361,29.951096c0,0 -0.909424,-14.031265 -0.909424,-25.41394c0,-11.381302 -18.171295,-8.771149 -18.171295,0c0,11.304382 0,57.993652 0,70.793823c0,12.801636 18.171295,11.095215 18.171295,0c0,-11.093811 0,-23.597992 0,-23.597992l5.452271,-2.722519c0,0 15.931244,21.288101 22.714111,29.951004c8.692871,11.103821 24.014954,0.50531 16.353882,-9.075623c-7.661011,-9.580933 -25.439514,-33.581635 -25.439514,-33.581635c0,0 18.870087,-19.776703 24.531555,-25.413956zm-159.000427,7.261124l10.903076,31.767075l-21.806152,0l10.903076,-31.767075z" id="svg_4" fill-rule="evenodd" fill="#000000"/>
 </g>
</svg>