<?xml version="1.0" ?><svg height="60px" version="1.1" viewBox="0 0 60 60" width="60px" xmlns="http://www.w3.org/2000/svg" xmlns:sketch="http://www.bohemiancoding.com/sketch/ns" xmlns:xlink="http://www.w3.org/1999/xlink"><title/><defs/><g fill="none" fill-rule="evenodd" id="flat" stroke="none" stroke-width="1"><g id="skype"><path d="M30,60 C46.5685433,60 60,46.5685433 60,30 C60,13.4314567 46.5685433,0 30,0 C13.4314567,0 0,13.4314567 0,30 C0,46.5685433 13.4314567,60 30,60 Z" fill="#3498DB"/><path d="M44.5465196,32.6696671 L49.2274755,32.6696671 C49.0828377,33.9426188 48.1683915,34.8774127 46.979139,34.8774127 C45.6409587,34.8774127 44.8368696,34.0206067 44.5465196,32.6696671 L44.5465196,32.6696671 Z M37.3734878,28.5399623 C39.0727274,28.560008 39.4921846,30.3310036 39.4921846,31.6245653 C39.4921846,33.2612979 38.7973783,34.6283941 37.3734878,34.6484465 C35.8151323,34.6696211 35.2306803,33.204471 35.2306803,31.6245653 C35.2306803,30.1961897 35.7449574,28.5399623 37.3734878,28.5399623 L37.3734878,28.5399623 Z M55.5771348,35.6645801 C55.5771348,37.276799 54.3246656,38.5787169 52.7754198,38.5787169 C51.9745463,38.5787169 51.256174,38.2316512 50.7467222,37.6723335 C49.5612169,38.5291327 48.1249992,39.0310726 46.5709346,39.0310726 C45.0013328,39.0310726 43.5538641,38.5174374 42.3603216,37.6439172 C41.8230148,38.1620136 41.108925,38.4767671 40.3203769,38.4767671 C39.7353886,38.4767671 39.1895102,38.300732 38.7272034,37.999341 C37.6322281,40.0310505 35.5446029,41.402606 33.1468088,41.402606 C30.9536462,41.402606 29.0224488,40.259458 27.8653358,38.5174374 C26.8999983,39.549169 25.5500345,40.1903781 24.05489,40.1903781 C23.0659874,40.1903781 22.1440477,39.9084896 21.3512115,39.4193663 C21.3319355,41.3819891 19.8008932,42.9652397 17.9098706,42.9652397 C16.0065209,42.9652397 14.4647742,41.361379 14.4647742,39.3864964 L14.4728132,39.2477779 C14.1037177,39.3045981 13.7271212,39.3374757 13.3424893,39.3374757 C12.2201945,39.3374757 11.1605741,39.0806509 10.2070327,38.623284 C9.66971939,38.9213291 9.06116571,39.0929107 8.40975646,39.0929107 C6.31837788,39.0929107 4.61538462,37.3258187 4.61538462,35.1464827 C4.61538462,33.9916394 5.09805321,32.9593483 5.85553483,32.2368072 C5.83568374,32.0000416 5.82393901,31.7593802 5.82393901,31.5187187 C5.82393901,27.2012699 9.1908169,23.704423 13.3425015,23.704423 C14.9549584,23.704423 16.4506325,24.2347724 17.6741741,25.1327995 C18.7771867,23.5651478 20.5551728,22.5412148 22.5640525,22.5412148 C22.6149242,22.5412148 22.662088,22.545205 22.7086903,22.5495748 C23.2899248,20.8398674 24.8477431,19.6153846 26.6878752,19.6153846 C28.548369,19.6153846 30.129217,20.8721797 30.6863493,22.6147579 C31.3265114,21.3535026 32.5934444,20.4967043 34.0569809,20.4967043 C35.8858583,20.4967043 37.412606,21.8392867 37.7811718,23.6264322 C38.0442012,23.5902552 38.314725,23.5651644 38.5857915,23.5651644 C40.0771831,23.5651644 41.4308979,24.1534492 42.4621203,25.112205 C43.6320968,24.2838096 45.0484873,23.7980263 46.5709505,23.7980263 C50.6170994,23.7980263 53.8934408,27.2096436 53.8934408,31.4167854 C53.8934408,31.9354395 53.8463341,32.445172 53.7482658,32.9348589 C54.815387,33.3471009 55.5771507,34.4117043 55.5771507,35.6645966 L55.5771348,35.6645801 Z M51.7549233,32.2696937 C51.7549233,31.3187373 51.4801105,31.0741791 50.5817433,31.0741791 L44.5465355,31.0741791 C44.5465355,29.6090299 45.4604389,28.5399789 47.0145109,28.5399789 C49.0276722,28.5399789 49.0276722,29.9109718 50.1065751,29.9109718 C50.7467372,29.9109718 51.2052976,29.3394003 51.2052976,28.8257642 C51.2052976,27.1528235 48.6237569,26.3734545 47.0145109,26.3734545 C43.9776198,26.3734545 42.4781928,28.1115725 42.0271333,30.0619423 C41.6232171,28.017428 40.3353928,26.3734545 38.0479484,26.3734545 C36.8238705,26.3734545 35.9099681,26.8870906 35.4155163,27.7806633 L35.3763887,27.7806633 L35.3763887,24.071001 C35.3763887,23.1573749 34.8460447,22.6799488 34.0419612,22.6799488 C33.2367997,22.6799488 32.7075281,23.1573749 32.7075281,24.071001 L32.7075281,34.4200556 L29.7054642,25.5729178 C29.0663736,23.6715686 28.3319222,22.6799488 26.6487533,22.6799488 C25.4600315,22.6799488 24.9650434,23.2882939 24.9650434,23.9573549 C24.9650434,24.7005138 25.4793206,25.0798918 26.1939401,25.0798918 L26.4682241,25.0798918 C26.8137471,25.0798918 27.1978437,25.0954907 27.3987354,25.9528476 L24.6200557,34.1916539 C24.5220193,34.4896931 24.4475563,34.7136471 24.3929177,34.901942 C24.3297263,34.8161488 24.2595252,34.7387117 24.1764963,34.6484631 L22.2029726,32.4980943 L24.9853994,28.6174081 C25.0753987,28.4870546 25.2596825,28.1806514 25.2596825,27.7238364 C25.2596825,27.0180077 24.7105856,26.3734536 23.9964958,26.3734536 C23.3370502,26.3734536 22.9877735,26.7155081 22.7879533,27.0180077 L20.2642687,30.7315659 L19.3305465,29.8747608 L19.3305465,27.7606089 C19.3305465,26.850322 18.8007331,26.3734536 17.9961134,26.3734536 C17.1877399,26.3734536 16.657933,26.850322 16.657933,27.7606089 L16.657933,28.7850938 C16.1795538,27.1444644 14.3940602,26.3734536 12.6712481,26.3734536 C10.2579181,26.3734536 8.24528634,27.4954347 8.24528634,28.8664267 C8.24528634,29.4742132 8.57474411,30.0251736 9.32418946,30.0251736 C10.4775502,30.0251736 10.5879057,28.3115694 12.5614291,28.3115694 C13.5112238,28.3115694 14.1154946,28.752223 14.1154946,29.3193459 C14.1154946,30.0251736 13.5305129,30.1393784 12.5812479,30.3883969 L11.0078933,30.7844892 C9.45382792,31.1839215 8.24528634,31.853547 8.24528634,33.7186803 C8.24528634,35.9787905 10.4036226,36.8194399 12.2512606,36.8194399 C14.2799587,36.8194399 16.3322279,35.9787905 16.3322279,34.7058457 C16.3322279,34.0573889 15.9084872,33.4897142 15.2142172,33.4897142 C14.1701388,33.4897142 14.1347837,34.7632235 12.4516101,34.7632235 C11.5178811,34.7632235 10.9136102,34.4980483 10.9136102,33.9064175 C10.9136102,33.2613125 11.5178811,33.1064394 12.3417901,32.9181436 L13.456049,32.6490648 C14.7395907,32.3471229 16.2266923,31.8206762 16.657933,30.4987048 L16.657933,39.1781637 C16.657933,40.0878852 17.1877399,40.5653113 17.9961134,40.5653113 C18.8007331,40.5653113 19.3305465,40.0878852 19.3305465,39.1781637 L19.3305465,32.8618743 L22.2929662,36.2851937 C22.5677856,36.5910383 22.9170633,36.8194399 23.3172314,36.8194399 C23.7527556,36.8194399 24.2155985,36.5258552 24.43952,36.1013524 C24.6554118,36.5342123 25.0871821,36.8194399 25.5891339,36.8194399 C26.3032237,36.8194399 26.7976746,36.3993984 26.9583859,35.771 L28.6811981,29.2825724 L28.7165597,29.2825724 L30.3456263,35.5788015 C30.5299018,36.2851937 30.8947157,36.8194399 31.6286243,36.8194399 C32.2602214,36.8194399 32.6250279,36.4935429 32.8178834,36.158736 C32.9780584,36.5871356 33.3353714,36.8194399 33.9123225,36.8194399 C34.7008706,36.8194399 35.1208584,36.3587281 35.1208584,35.5058257 L35.1208584,35.069069 L35.159986,35.069069 C35.5997992,36.2478684 36.6786964,36.8194399 37.9734845,36.8194399 C39.8805796,36.8194399 41.5835739,35.5749047 42.0432059,32.9755204 C42.560694,35.3258861 44.2990424,36.8194399 46.9245107,36.8194399 C49.9972923,36.8194399 51.7549233,34.5548753 51.7549233,32.2696927 L51.7549233,32.2696937 Z M52.5825858,36.6194478 L53.1048927,36.6194478 C53.1048927,36.6194478 53.1087297,36.6194478 53.5050618,35.4161348 L53.8779111,36.6194478 L54.3953926,36.6194478 L54.3953926,34.8690711 L54.0504049,34.8690711 C54.0504049,34.8690711 54.0465679,34.8690711 54.0465679,36.1097095 L53.634081,34.8690711 L53.3474781,34.8690711 C53.3474781,34.8690711 53.3436411,34.8690711 52.9317802,36.0974566 L52.9317802,34.8690711 L52.5825035,34.8690711 L52.5825035,36.6194478 L52.5825858,36.6194478 Z M51.0129784,36.2974477 L51.0129784,36.6194478 L52.3902667,36.6194478 L52.3902667,36.2974477 L51.8883158,36.2974477 L51.8883158,34.8690711 L51.5154655,34.8690711 L51.5154655,36.2974477 L51.0129784,36.2974477 L51.0129784,36.2974477 Z" fill="#FFFFFF" transform="translate(30.096268, 31.290312) scale(1, -1) translate(-30.096268, -31.290312) "/></g></g></svg>